<?xml version="1.0" standalone="no"?>
<svg viewBox="0 0 200 200" xmlns="http://www.w3.org/2000/svg">
  <path fill="#976391" d="M31,-55.8C42.2,-47.2,54.6,-43,62.9,-34.4C71.2,-25.8,75.5,-12.9,75.9,0.3C76.4,13.4,73,26.8,65.4,36.5C57.7,46.3,45.7,52.3,34.1,57.9C22.4,63.4,11.2,68.6,0.6,67.6C-10.1,66.6,-20.2,59.5,-32.9,54.6C-45.7,49.7,-61.1,46.9,-72.1,38.2C-83.1,29.4,-89.7,14.7,-86,2.1C-82.3,-10.4,-68.3,-20.9,-57,-29.1C-45.7,-37.3,-37.1,-43.3,-28,-53.2C-19,-63,-9.5,-76.7,0.2,-77C9.9,-77.4,19.8,-64.4,31,-55.8Z" transform="translate(100 100)" />
</svg>
